<svg width="200" height="200" viewBox="0 0 200 200" fill="none" xmlns="http://www.w3.org/2000/svg">
<g filter="url(#filter0_d_3300_130)">
<mask id="mask0_3300_130" style="mask-type:alpha" maskUnits="userSpaceOnUse" x="0" y="0" width="200" height="200">
<rect width="200" height="200" fill="url(#paint0_linear_3300_130)"/>
</mask>
<g mask="url(#mask0_3300_130)">
<path d="M100.001 183.331C89.8624 182.081 79.793 179.338 69.793 175.102C59.793 170.865 50.8694 164.789 43.0221 156.872C35.1749 148.956 28.8207 138.956 23.9596 126.872C19.0985 114.789 16.668 100.275 16.668 83.3307V74.9974H25.0013C32.0846 74.9974 39.3763 75.9002 46.8763 77.7057C54.3763 79.5113 61.3902 82.2196 67.918 85.8307C69.5846 73.8863 73.3694 61.6293 79.2721 49.0599C85.1749 36.4905 92.0846 25.6918 100.001 16.6641C107.918 25.6918 114.828 36.4905 120.73 49.0599C126.633 61.6293 130.418 73.8863 132.085 85.8307C138.612 82.2196 145.626 79.5113 153.126 77.7057C160.626 75.9002 167.918 74.9974 175.001 74.9974H183.335V83.3307C183.335 100.275 180.904 114.789 176.043 126.872C171.182 138.956 164.828 148.956 156.98 156.872C149.133 164.789 140.244 170.865 130.314 175.102C120.383 179.338 110.279 182.081 100.001 183.331ZM99.5846 166.247C98.0569 143.192 91.2166 125.761 79.0638 113.956C66.911 102.15 51.8069 94.8585 33.7513 92.0807C35.2791 115.831 42.3277 133.539 54.8971 145.206C67.4666 156.872 82.3624 163.886 99.5846 166.247ZM100.001 113.331C102.085 110.275 104.619 107.115 107.605 103.852C110.592 100.588 113.474 97.7752 116.251 95.4141C115.974 87.4974 114.411 79.2335 111.564 70.6224C108.717 62.0113 104.862 53.6085 100.001 45.4141C95.1402 53.6085 91.286 62.0113 88.4388 70.6224C85.5916 79.2335 84.0291 87.4974 83.7513 95.4141C86.5291 97.7752 89.4458 100.588 92.5013 103.852C95.5569 107.115 98.0569 110.275 100.001 113.331ZM116.251 162.497C121.39 160.831 126.737 158.4 132.293 155.206C137.849 152.011 143.022 147.671 147.814 142.185C152.605 136.699 156.703 129.859 160.105 121.664C163.508 113.47 165.557 103.609 166.251 92.0807C153.196 94.0252 141.737 98.3655 131.876 105.102C122.015 111.838 114.446 120.414 109.168 130.831C110.835 135.275 112.258 140.136 113.439 145.414C114.619 150.692 115.557 156.386 116.251 162.497Z" fill="url(#paint1_linear_3300_130)"/>
</g>
</g>
<defs>
<filter id="filter0_d_3300_130" x="-4" y="-4" width="208" height="208" filterUnits="userSpaceOnUse" color-interpolation-filters="sRGB">
<feFlood flood-opacity="0" result="BackgroundImageFix"/>
<feColorMatrix in="SourceAlpha" type="matrix" values="0 0 0 0 0 0 0 0 0 0 0 0 0 0 0 0 0 0 127 0" result="hardAlpha"/>
<feOffset/>
<feGaussianBlur stdDeviation="2"/>
<feComposite in2="hardAlpha" operator="out"/>
<feColorMatrix type="matrix" values="0 0 0 0 0 0 0 0 0 0 0 0 0 0 0 0 0 0 0.25 0"/>
<feBlend mode="normal" in2="BackgroundImageFix" result="effect1_dropShadow_3300_130"/>
<feBlend mode="normal" in="SourceGraphic" in2="effect1_dropShadow_3300_130" result="shape"/>
</filter>
<linearGradient id="paint0_linear_3300_130" x1="100" y1="0" x2="100" y2="200" gradientUnits="userSpaceOnUse">
<stop stop-color="#ECF4FF"/>
<stop offset="1" stop-color="#FCEFFF"/>
</linearGradient>
<linearGradient id="paint1_linear_3300_130" x1="100.001" y1="16.6641" x2="100.001" y2="183.331" gradientUnits="userSpaceOnUse">
<stop stop-color="#ECF4FF"/>
<stop offset="1" stop-color="#FCEFFF"/>
</linearGradient>
</defs>
</svg>
