<svg width="200" height="200" viewBox="0 0 200 200" fill="none" xmlns="http://www.w3.org/2000/svg">
<mask id="mask0_3300_83" style="mask-type:alpha" maskUnits="userSpaceOnUse" x="0" y="0" width="200" height="200">
<rect width="200" height="200" fill="#D9D9D9"/>
</mask>
<g mask="url(#mask0_3300_83)">
<path d="M87.4987 129.164H112.499V108.331H133.332V83.3307H112.499V62.4974H87.4987V83.3307H66.6654V108.331H87.4987V129.164ZM99.9987 183.331C80.6931 178.47 64.7556 167.393 52.1862 150.102C39.6168 132.81 33.332 113.609 33.332 92.4974V41.6641L99.9987 16.6641L166.665 41.6641V92.4974C166.665 113.609 160.381 132.81 147.811 150.102C135.242 167.393 119.304 178.47 99.9987 183.331ZM99.9987 165.831C114.443 161.247 126.388 152.081 135.832 138.331C145.276 124.581 149.999 109.303 149.999 92.4974V53.1224L99.9987 34.3724L49.9987 53.1224V92.4974C49.9987 109.303 54.7209 124.581 64.1654 138.331C73.6098 152.081 85.5543 161.247 99.9987 165.831Z" fill="url(#paint0_linear_3300_83)"/>
</g>
<defs>
<linearGradient id="paint0_linear_3300_83" x1="99.9987" y1="16.6641" x2="99.9987" y2="183.331" gradientUnits="userSpaceOnUse">
<stop stop-color="#A6CCFF"/>
<stop offset="1" stop-color="#F5C4FF"/>
</linearGradient>
</defs>
</svg>
