<svg width="200" height="200" viewBox="0 0 200 200" fill="none" xmlns="http://www.w3.org/2000/svg">
<g filter="url(#filter0_d_3300_85)">
<mask id="mask0_3300_85" style="mask-type:alpha" maskUnits="userSpaceOnUse" x="0" y="0" width="200" height="200">
<rect width="200" height="200" fill="url(#paint0_linear_3300_85)"/>
</mask>
<g mask="url(#mask0_3300_85)">
<path d="M8.33203 108.336V91.6693H58.332V108.336H8.33203ZM64.582 76.2526L47.082 58.7526L58.7487 47.0859L76.2487 64.5859L64.582 76.2526ZM91.6654 58.3359V8.33594H108.332V58.3359H91.6654ZM135.415 76.2526L123.749 64.5859L141.249 47.0859L152.915 58.7526L135.415 76.2526ZM141.665 108.336V91.6693H191.665V108.336H141.665ZM99.9987 125.003C93.0543 125.003 87.1515 122.572 82.2904 117.711C77.4293 112.85 74.9987 106.947 74.9987 100.003C74.9987 93.0582 77.4293 87.1554 82.2904 82.2943C87.1515 77.4332 93.0543 75.0026 99.9987 75.0026C106.943 75.0026 112.846 77.4332 117.707 82.2943C122.568 87.1554 124.999 93.0582 124.999 100.003C124.999 106.947 122.568 112.85 117.707 117.711C112.846 122.572 106.943 125.003 99.9987 125.003ZM141.249 152.919L123.749 135.419L135.415 123.753L152.915 141.253L141.249 152.919ZM58.7487 152.919L47.082 141.253L64.582 123.753L76.2487 135.419L58.7487 152.919ZM91.6654 191.669V141.669H108.332V191.669H91.6654Z" fill="url(#paint1_linear_3300_85)"/>
</g>
</g>
<defs>
<filter id="filter0_d_3300_85" x="-4" y="-4" width="208" height="208" filterUnits="userSpaceOnUse" color-interpolation-filters="sRGB">
<feFlood flood-opacity="0" result="BackgroundImageFix"/>
<feColorMatrix in="SourceAlpha" type="matrix" values="0 0 0 0 0 0 0 0 0 0 0 0 0 0 0 0 0 0 127 0" result="hardAlpha"/>
<feOffset/>
<feGaussianBlur stdDeviation="2"/>
<feComposite in2="hardAlpha" operator="out"/>
<feColorMatrix type="matrix" values="0 0 0 0 0 0 0 0 0 0 0 0 0 0 0 0 0 0 0.25 0"/>
<feBlend mode="normal" in2="BackgroundImageFix" result="effect1_dropShadow_3300_85"/>
<feBlend mode="normal" in="SourceGraphic" in2="effect1_dropShadow_3300_85" result="shape"/>
</filter>
<linearGradient id="paint0_linear_3300_85" x1="100" y1="0" x2="100" y2="200" gradientUnits="userSpaceOnUse">
<stop stop-color="#ECF4FF"/>
<stop offset="1" stop-color="#FCEFFF"/>
</linearGradient>
<linearGradient id="paint1_linear_3300_85" x1="99.9987" y1="8.33594" x2="99.9987" y2="191.669" gradientUnits="userSpaceOnUse">
<stop stop-color="#ECF4FF"/>
<stop offset="1" stop-color="#FCEFFF"/>
</linearGradient>
</defs>
</svg>
