<svg width="200" height="200" viewBox="0 0 200 200" fill="none" xmlns="http://www.w3.org/2000/svg">
<mask id="mask0_3300_82" style="mask-type:alpha" maskUnits="userSpaceOnUse" x="0" y="0" width="200" height="200">
<rect width="200" height="200" fill="#D9D9D9"/>
</mask>
<g mask="url(#mask0_3300_82)">
<path d="M45 163.337C38.75 157.087 33.8542 149.865 30.3125 141.67C26.7708 133.476 25 125.004 25 116.254C25 107.504 26.6667 98.8578 30 90.3161C33.3333 81.7744 38.75 73.7536 46.25 66.2536C51.1111 61.3925 57.1181 57.2258 64.2708 53.7536C71.4236 50.2814 79.8958 47.5383 89.6875 45.5244C99.4792 43.5106 110.66 42.2953 123.229 41.8786C135.799 41.4619 149.861 41.9481 165.417 43.3369C166.528 58.0592 166.875 71.6008 166.458 83.9619C166.042 96.3231 164.896 107.469 163.021 117.399C161.146 127.33 158.507 136.011 155.104 143.441C151.701 150.872 147.5 157.087 142.5 162.087C135.139 169.448 127.326 174.83 119.062 178.233C110.799 181.636 102.361 183.337 93.75 183.337C84.7222 183.337 75.9028 181.566 67.2917 178.024C58.6806 174.483 51.25 169.587 45 163.337ZM68.3333 160.004C72.3611 162.365 76.4931 164.066 80.7292 165.108C84.9653 166.149 89.3056 166.67 93.75 166.67C100.139 166.67 106.458 165.386 112.708 162.816C118.958 160.247 124.931 156.115 130.625 150.42C133.125 147.92 135.66 144.413 138.229 139.899C140.799 135.386 143.021 129.483 144.896 122.191C146.771 114.899 148.194 106.08 149.167 95.7328C150.139 85.3856 150.278 73.0592 149.583 58.7536C142.778 58.4758 135.104 58.3717 126.562 58.4411C118.021 58.5105 109.514 59.1703 101.042 60.4203C92.5694 61.6703 84.5139 63.6842 76.875 66.4619C69.2361 69.2397 62.9861 73.0592 58.125 77.9203C51.875 84.1703 47.5694 90.3508 45.2083 96.4619C42.8472 102.573 41.6667 108.476 41.6667 114.17C41.6667 122.365 43.2292 129.552 46.3542 135.733C49.4792 141.913 52.2222 146.254 54.5833 148.754C60.4167 137.642 68.125 126.983 77.7083 116.774C87.2917 106.566 98.4722 98.1981 111.25 91.6703C101.25 100.42 92.5347 110.316 85.1042 121.358C77.6736 132.399 72.0833 145.281 68.3333 160.004Z" fill="url(#paint0_linear_3300_82)"/>
</g>
<defs>
<linearGradient id="paint0_linear_3300_82" x1="95.8144" y1="41.7344" x2="95.8144" y2="183.337" gradientUnits="userSpaceOnUse">
<stop stop-color="#A6CCFF"/>
<stop offset="1" stop-color="#F5C4FF"/>
</linearGradient>
</defs>
</svg>
