<svg width="200" height="200" viewBox="0 0 200 200" fill="none" xmlns="http://www.w3.org/2000/svg">
<mask id="mask0_3300_84" style="mask-type:alpha" maskUnits="userSpaceOnUse" x="0" y="0" width="200" height="200">
<rect width="200" height="200" fill="#D9D9D9"/>
</mask>
<g mask="url(#mask0_3300_84)">
<path d="M75.6159 135.443L99.9909 120.651L124.366 135.443L117.908 107.734L139.574 88.9844L111.033 86.6927L99.9909 60.4427L88.9492 86.6927L60.4076 88.9844L82.0742 107.734L75.6159 135.443ZM99.9909 194.193L72.0742 166.693H33.3242V127.943L5.82422 100.026L33.3242 72.1094V33.3594H72.0742L99.9909 5.85938L127.908 33.3594H166.658V72.1094L194.158 100.026L166.658 127.943V166.693H127.908L99.9909 194.193ZM99.9909 170.859L120.824 150.026H149.991V120.859L170.824 100.026L149.991 79.1927V50.026H120.824L99.9909 29.1927L79.1576 50.026H49.9909V79.1927L29.1576 100.026L49.9909 120.859V150.026H79.1576L99.9909 170.859Z" fill="url(#paint0_linear_3300_84)"/>
</g>
<defs>
<linearGradient id="paint0_linear_3300_84" x1="99.9909" y1="5.85937" x2="99.9909" y2="194.193" gradientUnits="userSpaceOnUse">
<stop stop-color="#A6CCFF"/>
<stop offset="1" stop-color="#F5C4FF"/>
</linearGradient>
</defs>
</svg>
